/* XPM */
static const char *icon[] = {
/* columns rows colors chars-per-pixel */
"64 64 227 2 ",
"   c None",
".  c black",
"X  c #010101",
"o  c #020202",
"O  c gray1",
"+  c #040404",
"@  c gray2",
"#  c #060606",
"$  c #070707",
"%  c gray3",
"&  c #090909",
"*  c gray4",
"=  c #0B0B0B",
"-  c #0C0C0C",
";  c gray5",
":  c #0E0E0E",
">  c gray6",
",  c #101010",
"<  c #111111",
"1  c gray7",
"2  c #131313",
"3  c gray8",
"4  c #151515",
"5  c #161616",
"6  c gray9",
"7  c #181818",
"8  c #191919",
"9  c gray10",
"0  c #1B1B1B",
"q  c gray11",
"w  c #1D1D1D",
"e  c #1E1E1E",
"r  c gray12",
"t  c #202020",
"y  c gray13",
"u  c #222222",
"i  c #232323",
"p  c gray14",
"a  c #252525",
"s  c gray15",
"d  c #272727",
"f  c #282828",
"g  c gray16",
"h  c #2A2A2A",
"j  c gray17",
"k  c #2C2C2C",
"l  c gray18",
"z  c #2F2F2F",
"x  c #313131",
"c  c #323232",
"v  c gray20",
"b  c #343434",
"n  c #353535",
"m  c gray21",
"M  c gray22",
"N  c #393939",
"B  c gray23",
"V  c #3C3C3C",
"C  c gray24",
"Z  c #3F3F3F",
"A  c gray25",
"S  c #414141",
"D  c gray26",
"F  c #434343",
"G  c gray27",
"H  c #464646",
"J  c gray28",
"K  c #484848",
"L  c #494949",
"P  c gray29",
"I  c #4C4C4C",
"U  c gray30",
"Y  c #4E4E4E",
"T  c gray31",
"R  c #505050",
"E  c #515151",
"W  c gray33",
"Q  c #555555",
"!  c #565656",
"~  c gray34",
"^  c #585858",
"/  c gray35",
"(  c #5A5A5A",
")  c #5B5B5B",
"_  c gray36",
"`  c #606060",
"'  c gray38",
"]  c #626262",
"[  c gray39",
"{  c #656565",
"}  c gray40",
"|  c #676767",
" . c #686868",
".. c DimGray",
"X. c #6A6A6A",
"o. c gray42",
"O. c #6C6C6C",
"+. c #6D6D6D",
"@. c gray43",
"#. c #6F6F6F",
"$. c gray44",
"%. c #717171",
"&. c #727272",
"*. c gray45",
"=. c #747474",
"-. c gray46",
";. c #767676",
":. c #777777",
">. c #797979",
",. c gray48",
"<. c #7B7B7B",
"1. c #7C7C7C",
"2. c gray49",
"3. c #7E7E7E",
"4. c #808080",
"5. c #818181",
"6. c gray51",
"7. c #838383",
"8. c #848484",
"9. c gray52",
"0. c gray53",
"q. c #888888",
"w. c #898989",
"e. c gray54",
"r. c #8B8B8B",
"t. c gray55",
"y. c #8D8D8D",
"u. c #8E8E8E",
"i. c gray56",
"p. c #909090",
"a. c gray57",
"s. c #929292",
"d. c #939393",
"f. c gray58",
"g. c #959595",
"h. c gray59",
"j. c #979797",
"k. c #989898",
"l. c gray60",
"z. c #9A9A9A",
"x. c #9B9B9B",
"c. c gray61",
"v. c #9D9D9D",
"b. c gray62",
"n. c #9F9F9F",
"m. c #A0A0A0",
"M. c gray63",
"N. c #A2A2A2",
"B. c gray64",
"V. c #A4A4A4",
"C. c #A5A5A5",
"Z. c gray65",
"A. c #A7A7A7",
"S. c gray66",
"D. c #AAAAAA",
"F. c gray67",
"G. c #ACACAC",
"H. c gray68",
"J. c #AEAEAE",
"K. c #AFAFAF",
"L. c gray69",
"P. c #B1B1B1",
"I. c #B2B2B2",
"U. c gray70",
"Y. c #B4B4B4",
"T. c gray71",
"R. c #B6B6B6",
"E. c #B7B7B7",
"W. c gray72",
"Q. c #B9B9B9",
"!. c gray73",
"~. c #BBBBBB",
"^. c #BCBCBC",
"/. c gray74",
"(. c gray75",
"). c #C1C1C1",
"_. c gray76",
"`. c #C3C3C3",
"'. c gray77",
"]. c #C5C5C5",
"[. c #C6C6C6",
"{. c gray78",
"}. c #C8C8C8",
"|. c gray79",
" X c #CACACA",
".X c #CBCBCB",
"XX c gray80",
"oX c #CDCDCD",
"OX c #CECECE",
"+X c gray81",
"@X c #D0D0D0",
"#X c gray82",
"$X c #D2D2D2",
"%X c LightGray",
"&X c gray83",
"*X c #D5D5D5",
"=X c gray84",
"-X c #D7D7D7",
";X c #D8D8D8",
":X c gray85",
">X c #DADADA",
",X c gray86",
"<X c gainsboro",
"1X c gray87",
"2X c #DFDFDF",
"3X c gray88",
"4X c #E1E1E1",
"5X c #E2E2E2",
"6X c gray89",
"7X c #E4E4E4",
"8X c gray90",
"9X c #E6E6E6",
"0X c #E7E7E7",
"qX c gray91",
"wX c #E9E9E9",
"eX c #EAEAEA",
"rX c gray92",
"tX c #ECECEC",
"yX c gray93",
"uX c #EEEEEE",
"iX c #EFEFEF",
"pX c gray94",
"aX c #F1F1F1",
"sX c gray95",
"dX c #F3F3F3",
"fX c #F4F4F4",
"gX c gray96",
/* pixels */
"                                                                                                                                ",
"                                                                                                                                ",
"                                                                                                                                ",
"                                                                                                                                ",
"                                                                                                                                ",
"                        |.>X7XqXqXqXqXqXqXqXqXqXqXqXqXqXqXqXqXqXqXqXqXqXqXqXqXqXqXqXqXqXqXqXqXqXqX7X>X|.                        ",
"                    |.5XiXiXiXiXiXiXiXiXiXiXiXiXiXiXiXiXiXiXiXiXiXiXiXiXiXiXiXiXiXiXiXiXiXiXiXiXiXiXiXiX5X|.                    ",
"                  -XiXiXiXiXiXiXiXiXiXiXiXiXiXiXiXiXiXiXiXiXiXiXiXiXiXiXiXiXiXiXiXiXiXiXiXiXiXiXiXiXiXiXiXiX-X                  ",
"                >XiXiXiXiXiXiXiXiXiXiXiXiXiXiXiXiXiXiXiXiXiXiXiXiXiXiXiXiXiXiXiXiXiXiXiXiXiXiXiXiXiXiXiXiXiXiX>X                ",
"              -XiXiXiXiXiXiXiXiXiXiXiXiXiXiXiXiXiXiXiXiXiXiXiXiXiXiXiXiXiXiXiXiXiXiXiXiXiXiXiXiXiXiXiXiXiXiXiXiX-X              ",
"            |.iXiXiXiXiXiXiXiXiXiXiXiXiXiXiXiXiXiXiXiXiXiXiXiXiXiXiXiXiXiXiXiXiXiXiXaXaXiXiXiXiXiXiXiXiXiXiXiXiXiX|.            ",
"            5XiXiXiXiXiXiXiXiXiXiXiXiXiXiXiXiXiXiXiXiXiXiXiXiXiXiXiXiXaXaXaXaXaXqX2X_.$XiXaXiXiXiXiXiXiXiXiXiXiXiX5X            ",
"          |.iXiXiXiXiXiXiXiXiXiXaXaXaXiXiXaXaXaXaXaXaXaXaXaXiXqX7X5X>XoX!.M.w.X.K z 1 y O._.iXaXiXiXiXiXiXiXiXiXiXiX|.          ",
"          >XiXiXiXiXiXiXiXiXaX_.$.5.L.>X>X-XoX].!.J.M.p.5.$.` R S c s 8 - # . . . . . . . 4 X.$XaXiXiXiXiXiXiXiXiXiX>X          ",
"          7XiXiXiXiXiXiXiXiXaXp.. . = f f y 8 1 - # . . . . . . . . . . . . . # # . . . . . . z J.iXiXiXiXiXiXiXiXiX7X          ",
"          qXiXiXiXiXiXiXiXiXiX].8 . . . . . . # = 4 e f b S I ! ` X.;.5.w.h.b.A.S.k.M . . . . . e /.aXiXiXiXiXiXiXiXqX          ",
"          qXiXiXiXiXiXiXiXiXiXiX_ . . . s 1.h.A.!.|.$X>X|.b.J.$XiXaXaXaXaXaXaXaXaXfX/.4 . . . . = L.aXiXiXiXiXiXiXiXqX          ",
"          qXiXiXiXiXiXiXiXiXiXaXw.. . . ,.fXaXaXaXaXaXaXA.= = y | /.iXiXiXiXiXiXiXiX7XV . . . . H 7XiXiXiXiXiXiXiXiXqX          ",
"          qXiXiXiXiXiXiXiXiXiXaXk.. . . p.aXiXiXiXiXiXaXoXe . . . 4 b.aXiXiXiXiXiXiXiX^ . . . . w.aXiXiXiXiXiXiXiXiXqX          ",
"          qXiXiXiXiXiXiXiXiXiXaXk.. . . h.aXiXiXiXiXiXiX7XS . . . # h.aXiXiXiXiXiXiXaXO.. . . = L.aXiXiXiXiXiXiXiXiXqX          ",
"          qXiXiXiXiXiXiXiXiXiXaXk.. . . h.aXiXiXiXiXiXiXiX! . . . s >XaXaXiXiXaXiXiXaX5.. . . 1 ].aXiXiXiXiXiXiXiXiXqX          ",
"          qXiXiXiXiXiXiXiXiXiXaXh.. . . h.aXiXiXiXiXiXiXiX! . . . R 5X|.p.! ! b.7XiXaXh.. . . e $XaXiXiXiXiXiXiXiXiXqX          ",
"          qXiXiXiXiXiXiXiXiXiXaXh.. . . h.aXaXaXaXaXaXaXqXI . . . z S 8 . . . # 5.iXaXA.# . . y -XaXiXiXiXiXiXiXiXiXqX          ",
"          qXiXiXiXiXiXiXiXiXiXaXh.. . . h.aX|.S.b.p.5.O.! 4 . . . . . . . . . . ^ iXaXL.= . . s >XiXiXiXiXiXiXiXiXiXqX          ",
"          qXiXiXiXiXiXiXiXiXiXaXh.. . . h.fX,.. . . . . . . . . . . . . # 8 b _ /.aXaX/.- . . s >XiXiXiXiXiXiXiXiXiXqX          ",
"          qXiXiXiXiXiXiXiXiXiXaXp.. . . h.fX$XK # . . . . . . . 1 H | w.S.|.5XiXaXiXaX].1 . . s -XiXiXiXiXiXiXiXiXiXqX          ",
"          qXiXiXiXiXiXiXiXiXiXaXu.. . . h.aXaX2XA.5.;.1.;.1 . . X.qXiXaXaXaXiXiXiXiXaX|.8 . . y -XaXiXiXiXiXiXiXiXiXqX          ",
"          qXiXiXiXiXiXiXiXiXiXaXu.. . . k.aXiXiXaXaXaXfX].1 . . k.fXiXiXiXiXiXiXiXiXaX$Xe . . e $XaXiXiXiXiXiXiXiXiXqX          ",
"          qXiXiXiXiXiXiXiXiXiXaXw.. . . k.aXiXiXiXiXiXaXT.= . 1 /.2X5XaXaXiXiXiXiXiXaX$Xe . . 8 oXiXiXiXiXiXiXiXiXiXqX          ",
"          qXiXiXiXiXiXiXiXiXiXaX8.. . . b.aXiXaXaXaXaXfXA.# . 1 H s b ,.|.iXiXiXiXiXaX-Xy . . 4 |.iXiXiXiXiXiXiXiXiXqX          ",
"          qXiXiXiXiXiXiXiXiXiXaX5.. . . M.fX/.$.8.b.u.;.V . . . . . . . y 8.5XiXiXiXiX-Xy . . 1 ].aXiXiXiXiXiXiXiXiXqX          ",
"          qXiXiXiXiXiXiXiXiXiXaX,.. . . M.fX].s . . . . = e b I H = . . . . ^ 5XiXiXiX-Xy . . - /.aXiXiXiXiXiXiXiXiXqX          ",
"          qXiXiXiXiXiXiXiXiXiXaX;.. . # A.aXaXu.. . e u.T.oX5XqX5XM . . . . I 2XiXiXaX-Xy . . = T.aXiXiXiXiXiXiXiXiXqX          ",
"          qXiXiXiXiXiXiXiXiXiXaX$.. . # A.aXaX$Xy . f 2XaXaXiXiX7XV . . . _ 5XiXiXiXaX$Xe . . = L.aXiXiXiXiXiXiXiXiXqX          ",
"          qXiXiXiXiXiXiXiXiXiXaXX.. . # J.aXiXqXI . 1 _.aXiXiXaX-Xy . . z -XaXiXiXiXaX$Xe . . # S.aXiXiXiXiXiXiXiXiXqX          ",
"          qXiXiXiXiXiXiXiXiXiXiX` . . = J.aXiXaX$.. # A.fXaXaXfXL.= . . 8.aXiXiXiXiXaX$Xe . . # A.aXiXiXiXiXiXiXiXiXqX          ",
"          qXiXiXiXiXiXiXiXiXiXiX^ . . = L.aXiXaXp.. . 1.>X_.S.u.V . . 4 ].aXiXiXiXiXaXoX8 . . . b.aXiXiXiXiXiXiXiXiXqX          ",
"          qXiXiXiXiXiXiXiXiXiXiXR . . = T.aXiXaX!.- . 4 y 1 # . . . . 1 T.aXiXiXiXiXaX|.4 . . . k.aXiXiXiXiXiXiXiXiXqX          ",
"          qXiXiXiXiXiXiXiXiXiXqXH . . - !.aXiXiX2Xb . . . . . - 8 s z c u.aXiXiXiXiXaX_.1 . . . h.aXiXiXiXiXiXiXiXiXqX          ",
"          qXiXiXiXiXiXiXiXiXiX5Xc . . - /.aXiXiXaXu.# f O.8.M.!.oX>X2X5XqXiXiXiXiXiXaX!.- . . . u.aXiXiXiXiXiXiXiXiXqX          ",
"          qXiXiXiXiXiXiXiXiXiX|.8 . . - /.aXiXiXiX7XM._.aXaXaXaXaXiXiXiXiXiXiXiXiXiXaXL.= . . . 8.aXiXiXiXiXiXiXiXiXqX          ",
"          qXiXiXiXiXiXiXiXiXaXA.# . . 1 _.aXiXiXiXiXaXaXiXiXiXiXiXiXiXiXiXiXaXaXaXaXfXA.# . . . 5.aXiXiXiXiXiXiXiXiXqX          ",
"          qXiXiXiXiXiXiXiXiXaX5.. . . 1 ].aXiXiXiXiXaXaXaXaXaXaXaXaXaXiX7X2XoX/.J.J.-Xk.. . . . 1.aXiXiXiXiXiXiXiXiXqX          ",
"          qXiXiXiXiXiXiXiXiXiX` . . . 4 |.aXiXqX7X2X-XoX/.T.S.b.u.1.X.! S z e - # # s S . . . . ,.aXiXiXiXiXiXiXiXiXqX          ",
"          qXiXiXiXiXiXiXiXiXiX_ . . . = ^ ` ! K V z y 8 1 = # . . . . . . . . . . . . . . . . . ;.aXiXiXiXiXiXiXiXiXqX          ",
"          qXiXiXiXiXiXiXiXiXaXX.. . . . . . . . . . . . . . . . . . . . . . . . . . . . . . . . $.aXiXiXiXiXiXiXiXiXqX          ",
"          qXiXiXiXiXiXiXiXiXaXp.. . . . . . . . . # = - 4 8 y f b V H I ! ^ ` | X.O.` 1 . . . . $.aXiXiXiXiXiXiXiXiXqX          ",
"          qXiXiXiXiXiXiXiXiXaXoXy . . M X.$.1.w.h.A.L./.].oX-X2X5X7XqXqXiXiXiXaXaXaXiX` . . . . w.aXiXiXiXiXiXiXiXiXqX          ",
"          7XiXiXiXiXiXiXiXiXiXiXp.1 V $XaXaXaXaXaXaXaXaXaXaXaXiXiXiXiXiXiXiXiXiXiXiXaXL.= . . - !.aXiXiXiXiXiXiXiXiX7X          ",
"          5XiXiXiXiXiXiXiXiXiXiXqX_.>XaXiXiXiXiXiXiXiXiXiXiXiXiXiXiXiXiXiXiXiXiXiXiXiX5XM . . S 7XiXiXiXiXiXiXiXiXiX5X          ",
"          $XiXiXiXiXiXiXiXiXiXiXiXaXiXiXiXiXiXiXiXiXiXiXiXiXiXiXiXiXiXiXiXiXiXiXiXiXiXaX,.. = M.aXiXiXiXiXiXiXiXiXiX$X          ",
"          T.qXiXiXiXiXiXiXiXiXiXiXiXiXiXiXiXiXiXiXiXiXiXiXiXiXiXiXiXiXiXiXiXiXiXiXiXiXaX|.H ,.qXiXiXiXiXiXiXiXiXiXqXT.          ",
"            >XiXiXiXiXiXiXiXiXiXiXiXiXiXiXiXiXiXiXiXiXiXiXiXiXiXiXiXiXiXiXiXiXiXiXiXiXiXiX7XqXiXiXiXiXiXiXiXiXiXiX>X            ",
"            L.qXiXiXiXiXiXiXiXiXiXiXiXiXiXiXiXiXiXiXiXiXiXiXiXiXiXiXiXiXiXiXiXiXiXiXiXiXiXiXiXiXiXiXiXiXiXiXiXiXqXL.            ",
"              ].iXiXiXiXiXiXiXiXiXiXiXiXiXiXiXiXiXiXiXiXiXiXiXiXiXiXiXiXiXiXiXiXiXiXiXiXiXiXiXiXiXiXiXiXiXiXiXiX].              ",
"                oXiXiXiXiXiXiXiXiXiXiXiXiXiXiXiXiXiXiXiXiXiXiXiXiXiXiXiXiXiXiXiXiXiXiXiXiXiXiXiXiXiXiXiXiXiXiXoX                ",
"                  _.qXiXiXiXiXiXiXiXiXiXiXiXiXiXiXiXiXiXiXiXiXiXiXiXiXiXiXiXiXiXiXiXiXiXiXiXiXiXiXiXiXiXiXqX_.                  ",
"                    S.-XqXiXiXiXiXiXiXiXiXiXiXiXiXiXiXiXiXiXiXiXiXiXiXiXiXiXiXiXiXiXiXiXiXiXiXiXiXiXiXqX-XS.                    ",
"                        A.].>X5X7XqX7X7XqXqXqXqXqXqXqXqXqXqXqXqXqXqX7X7XqXqXqXqXqXqXqXqXqXqXqX7X5X>X].A.                        ",
"                                                                                                                                ",
"                                                                                                                                ",
"                                                                                                                                ",
"                                                                                                                                ",
"                                                                                                                                "
};
